<svg width="25" height="25" viewBox="0 0 25 25" fill="none" xmlns="http://www.w3.org/2000/svg">
    <g clip-path="url(#clip0_370_189)">
        <path d="M4.03125 4.99072C2.99609 4.99072 2.15625 5.83057 2.15625 6.86572C2.15625 7.45557 2.43359 8.01025 2.90625 8.36572L11.4062 14.7407C11.8516 15.0728 12.4609 15.0728 12.9062 14.7407L21.4062 8.36572C21.8789 8.01025 22.1562 7.45557 22.1562 6.86572C22.1562 5.83057 21.3164 4.99072 20.2812 4.99072H4.03125ZM2.15625 9.36572V17.4907C2.15625 18.8696 3.27734 19.9907 4.65625 19.9907H19.6562C21.0352 19.9907 22.1562 18.8696 22.1562 17.4907V9.36572L13.6562 15.7407C12.7656 16.4087 11.5469 16.4087 10.6562 15.7407L2.15625 9.36572Z" fill="white" style="fill:white;fill-opacity:1;"/>
    </g>
    <defs>
        <clipPath id="clip0_370_189">
            <rect width="20" height="20" fill="white" style="fill:white;fill-opacity:1;" transform="translate(2.15625 2.49072)"/>
        </clipPath>
    </defs>
</svg>
