<svg width="25" height="25" viewBox="0 0 25 25" fill="none" xmlns="http://www.w3.org/2000/svg">
    <g clip-path="url(#clip0_370_179)">
        <path d="M8.95352 4.35563C8.68281 3.70172 7.96914 3.35367 7.28711 3.54L4.19336 4.38375C3.58164 4.5525 3.15625 5.10797 3.15625 5.74078C3.15625 14.4384 10.2086 21.4908 18.9062 21.4908C19.5391 21.4908 20.0945 21.0654 20.2633 20.4537L21.107 17.3599C21.2934 16.6779 20.9453 15.9642 20.2914 15.6935L16.9164 14.2873C16.3434 14.0482 15.6789 14.2134 15.2887 14.6951L13.8684 16.4283C11.3934 15.2576 9.38945 13.2537 8.21875 10.7787L9.95195 9.36188C10.4336 8.96813 10.5988 8.30719 10.3598 7.73414L8.95352 4.35914V4.35563Z" fill="white" style="fill:white;fill-opacity:1;"/>
    </g>
    <defs>
        <clipPath id="clip0_370_179">
            <rect width="18" height="18" fill="white" style="fill:white;fill-opacity:1;" transform="translate(3.15625 3.49072)"/>
        </clipPath>
    </defs>
</svg>
