<svg width="25" height="25" viewBox="0 0 25 25" fill="none" xmlns="http://www.w3.org/2000/svg">
    <g clip-path="url(#clip0_418_195)">
        <path d="M13.1418 21.9907C15.2793 19.4829 20.1543 13.4048 20.1543 9.99072C20.1543 5.8501 16.571 2.49072 12.1543 2.49072C7.73763 2.49072 4.1543 5.8501 4.1543 9.99072C4.1543 13.4048 9.0293 19.4829 11.1668 21.9907C11.6793 22.5884 12.6293 22.5884 13.1418 21.9907ZM12.1543 7.49072C12.8615 7.49072 13.5398 7.75411 14.0399 8.22296C14.54 8.6918 14.821 9.32768 14.821 9.99072C14.821 10.6538 14.54 11.2896 14.0399 11.7585C13.5398 12.2273 12.8615 12.4907 12.1543 12.4907C11.4471 12.4907 10.7688 12.2273 10.2687 11.7585C9.76858 11.2896 9.48763 10.6538 9.48763 9.99072C9.48763 9.32768 9.76858 8.6918 10.2687 8.22296C10.7688 7.75411 11.4471 7.49072 12.1543 7.49072Z" fill="white" style="fill:white;fill-opacity:1;"/>
    </g>
    <defs>
        <clipPath id="clip0_418_195">
            <rect width="16" height="20" fill="white" style="fill:white;fill-opacity:1;" transform="translate(4.1543 2.49072)"/>
        </clipPath>
    </defs>
</svg>
